# xmcd
#
# Track frame offsets: 
#        225
#        17470
#        31679
#        48077
#        64055
#        85789
#        99900
#        112612
#        127631
#        138837
#        149876
#        165261
#        181350
#        201393
#        218468
#        231751
#
# Disc length: 3247 seconds
#
# Revision: 3
# Processed by: cddbd v1.5.2PL0 Copyright (c) Steve Scherf et al.
# Submitted via: ExactAudioCopyFreeDBPlugin 1.0
#
DISCID=bf0cac10
DTITLE=Various Artist - Jahrtausendhits Country [CD 3)
DYEAR=1998
DGENRE=Country
TTITLE0=André Lambrez and Hils Angels - Sie ist ein ehrbares Mädchen
TTITLE1=Olivia Winter - Ich war noch nie in Kansas City
TTITLE2=Sammy´s Saloon - country Music in Texas
TTITLE3=Little Ma´ Cissy - Zu einer Lady biegst auch Du mich nicht hin
TTITLE4=Jonny Hill - Ruf Teddybär eins - vier
TTITLE5=Gudrun Lange and Kactus - Ein Duft von Heu
TTITLE6=Heidi Gehlert - Dein Lachen steckt an
TTITLE7=Sammy´s Saloon - Das Lied vom Hufeisen
TTITLE8=Gudrun Lange and Kactus - Bärenstarke Cowboys
TTITLE9=Freddy Quinn - Kann Liebe alles verzeih´n
TTITLE10=Gudrun Lange and Kactus - Eighteen Wheels And A Doozen Roses
TTITLE11=Tom Astor - Ich möcht´ so gern dave Dudley hör´n
TTITLE12=Nancy Wood - Lieder der Straße
TTITLE13=Olivia Winter - Ich geb´ heut´ Nacht ´ne kleine Party
TTITLE14=Black Bottom Skiffle Group - Ich und der Niedermeier (Ring Of
TTITLE14=Fire)
TTITLE15=Saby Kent - Wer Liebe sucht (Stand By Your Man)
EXTD=
EXTT0=
EXTT1=
EXTT2=
EXTT3=
EXTT4=
EXTT5=
EXTT6=
EXTT7=
EXTT8=
EXTT9=
EXTT10=
EXTT11=
EXTT12=
EXTT13=
EXTT14=
EXTT15=
PLAYORDER=
